<svg xmlns="http://www.w3.org/2000/svg" width="800" height="400" viewBox="0 0 800 400" font-family="-apple-system,BlinkMacSystemFont,Segoe UI,Helvetica,Arial,sans-serif">
<rect width="800" height="400" fill="#1a1a19"/>
<text x="64" y="30" fill="#ffffff" font-size="15" font-weight="600">andre-salvati/databricks-template — stars over time</text>
<defs><linearGradient id="fade" x1="0" x2="0" y1="0" y2="1"><stop offset="0" stop-color="#3987e5" stop-opacity="0.18"/><stop offset="1" stop-color="#3987e5" stop-opacity="0"/></linearGradient></defs>
<line x1="64" x2="712" y1="356.0" y2="356.0" stroke="#33332f" stroke-width="1"/>
<text x="54" y="360.0" fill="#c3c2b7" font-size="11" text-anchor="end">0</text>
<line x1="64" x2="712" y1="281.0" y2="281.0" stroke="#33332f" stroke-width="1"/>
<text x="54" y="285.0" fill="#c3c2b7" font-size="11" text-anchor="end">20</text>
<line x1="64" x2="712" y1="206.0" y2="206.0" stroke="#33332f" stroke-width="1"/>
<text x="54" y="210.0" fill="#c3c2b7" font-size="11" text-anchor="end">40</text>
<line x1="64" x2="712" y1="131.0" y2="131.0" stroke="#33332f" stroke-width="1"/>
<text x="54" y="135.0" fill="#c3c2b7" font-size="11" text-anchor="end">60</text>
<line x1="64" x2="712" y1="56.0" y2="56.0" stroke="#33332f" stroke-width="1"/>
<text x="54" y="60.0" fill="#c3c2b7" font-size="11" text-anchor="end">80</text>
<text x="64.0" y="376.0" fill="#c3c2b7" font-size="11" text-anchor="start">Dec 2023</text>
<text x="388.0" y="376.0" fill="#c3c2b7" font-size="11" text-anchor="middle">Apr 2025</text>
<text x="712.0" y="376.0" fill="#c3c2b7" font-size="11" text-anchor="end">Jul 2026</text>
<path d="M64.0,356.0 L64.0,352.2 L65.2,348.5 L65.8,344.8 L76.2,341.0 L127.1,337.2 L128.5,333.5 L151.0,329.8 L154.3,326.0 L161.3,322.2 L239.7,318.5 L247.0,314.8 L268.6,311.0 L269.3,307.2 L297.4,303.5 L323.1,299.8 L361.3,296.0 L362.9,292.2 L378.0,288.5 L381.0,284.8 L426.3,281.0 L427.9,277.2 L437.7,273.5 L454.0,269.8 L471.1,266.0 L473.3,262.2 L473.4,258.5 L474.4,254.8 L484.4,251.0 L494.3,247.2 L496.7,243.5 L507.7,239.8 L527.4,236.0 L540.3,232.2 L542.7,228.5 L543.2,224.8 L545.5,221.0 L550.0,217.2 L550.1,213.5 L552.3,209.8 L552.9,206.0 L553.4,202.2 L581.7,198.5 L591.7,194.8 L595.8,191.0 L597.3,187.2 L601.5,183.5 L604.3,179.8 L607.2,176.0 L616.8,172.2 L622.7,168.5 L627.7,164.8 L629.1,161.0 L632.5,157.2 L636.4,153.5 L636.8,149.8 L645.3,146.0 L652.3,142.2 L653.7,138.5 L655.3,134.8 L658.1,131.0 L665.3,127.2 L665.7,123.5 L667.7,119.8 L669.0,116.0 L670.4,112.2 L673.4,108.5 L674.6,104.8 L675.2,101.0 L682.1,97.2 L682.7,93.5 L684.9,89.8 L685.4,86.0 L693.6,82.2 L694.9,78.5 L702.8,74.8 L709.6,71.0 L710.3,67.2 L711.7,63.5 L712.0,59.8 L712.0,356 L64.0,356 Z" fill="url(#fade)"/>
<path d="M64.0,356.0 L64.0,352.2 L65.2,348.5 L65.8,344.8 L76.2,341.0 L127.1,337.2 L128.5,333.5 L151.0,329.8 L154.3,326.0 L161.3,322.2 L239.7,318.5 L247.0,314.8 L268.6,311.0 L269.3,307.2 L297.4,303.5 L323.1,299.8 L361.3,296.0 L362.9,292.2 L378.0,288.5 L381.0,284.8 L426.3,281.0 L427.9,277.2 L437.7,273.5 L454.0,269.8 L471.1,266.0 L473.3,262.2 L473.4,258.5 L474.4,254.8 L484.4,251.0 L494.3,247.2 L496.7,243.5 L507.7,239.8 L527.4,236.0 L540.3,232.2 L542.7,228.5 L543.2,224.8 L545.5,221.0 L550.0,217.2 L550.1,213.5 L552.3,209.8 L552.9,206.0 L553.4,202.2 L581.7,198.5 L591.7,194.8 L595.8,191.0 L597.3,187.2 L601.5,183.5 L604.3,179.8 L607.2,176.0 L616.8,172.2 L622.7,168.5 L627.7,164.8 L629.1,161.0 L632.5,157.2 L636.4,153.5 L636.8,149.8 L645.3,146.0 L652.3,142.2 L653.7,138.5 L655.3,134.8 L658.1,131.0 L665.3,127.2 L665.7,123.5 L667.7,119.8 L669.0,116.0 L670.4,112.2 L673.4,108.5 L674.6,104.8 L675.2,101.0 L682.1,97.2 L682.7,93.5 L684.9,89.8 L685.4,86.0 L693.6,82.2 L694.9,78.5 L702.8,74.8 L709.6,71.0 L710.3,67.2 L711.7,63.5 L712.0,59.8" fill="none" stroke="#3987e5" stroke-width="2" stroke-linejoin="round" stroke-linecap="round"/>
<circle cx="712.0" cy="59.8" r="4" fill="#3987e5"/>
<text x="722.0" y="63.8" fill="#ffffff" font-size="13" font-weight="600">79</text>
</svg>
